<?xml version='1.0' encoding='iso-8859-1'?>
<svg version="1.1" xmlns="http://www.w3.org/2000/svg" viewBox="0 0 6.242 6.242" xmlns:xlink="http://www.w3.org/1999/xlink" enable-background="new 0 0 6.242 6.242">
  <path fill="#020400" d="m4.233,3.878v-0.243h-0.916c0.137-0.267 0.268-0.533 0.391-0.8 0.124-0.267 0.238-0.517 0.344-0.752 0.107-0.235 0.208-0.451 0.304-0.648 0.096-0.196 0.182-0.357 0.257-0.484 0.404,0.057 0.752,0.065 1.043,0.026 0.292-0.038 0.479-0.124 0.561-0.257 0.055-0.091 0.019-0.179-0.108-0.263-0.127-0.085-0.34-0.126-0.643-0.126-0.178,0-0.346,0.03-0.504,0.089-0.157,0.06-0.311,0.142-0.462,0.248-0.13-0.008-0.285-0.025-0.462-0.054-0.179-0.027-0.378-0.08-0.597-0.157-0.5-0.162-0.944-0.233-1.332-0.216-0.387,0.018-0.716,0.09-0.987,0.216-0.271,0.126-0.481,0.293-0.632,0.5-0.151,0.207-0.237,0.416-0.257,0.626-0.021,0.21 0.025,0.405 0.139,0.584 0.113,0.179 0.296,0.31 0.55,0.395 0.232,0.077 0.471,0.102 0.714,0.074 0.244-0.028 0.48-0.086 0.71-0.174 0.23-0.088 0.447-0.199 0.653-0.332 0.206-0.133 0.391-0.263 0.555-0.389-0.179,0.274-0.347,0.563-0.504,0.869-0.157,0.304-0.31,0.606-0.458,0.904-0.147,0.299-0.289,0.586-0.426,0.864-0.137,0.277-0.274,0.521-0.412,0.731-0.137,0.211-0.272,0.379-0.406,0.505-0.134,0.126-0.272,0.19-0.416,0.19-0.117,0-0.208-0.03-0.272-0.089-0.065-0.06-0.105-0.126-0.119-0.2-0.014-0.074-0.001-0.143 0.036-0.206 0.038-0.063 0.104-0.094 0.2-0.094 0.048,0 0.084-0.039 0.108-0.116 0.024-0.077 0.029-0.16 0.015-0.247-0.013-0.088-0.05-0.167-0.112-0.238-0.061-0.069-0.158-0.098-0.288-0.084-0.117,0.015-0.216,0.06-0.298,0.137-0.082,0.077-0.139,0.171-0.17,0.279-0.031,0.109-0.04,0.227-0.026,0.353 0.014,0.126 0.057,0.24 0.128,0.342 0.072,0.102 0.177,0.188 0.313,0.258 0.138,0.07 0.305,0.105 0.504,0.105 0.22,0 0.43-0.058 0.633-0.173 0.203-0.116 0.396-0.271 0.582-0.464 0.185-0.193 0.363-0.418 0.535-0.674 0.171-0.256 0.332-0.527 0.483-0.816h1.049v0.001zm-3.281-1.879c-0.055-0.13-0.058-0.272-0.01-0.426 0.048-0.154 0.144-0.306 0.288-0.453 0.144-0.147 0.322-0.272 0.534-0.374 0.213-0.101 0.455-0.167 0.726-0.194 0.27-0.028 0.557,0.006 0.858,0.105 0.158,0.049 0.31,0.093 0.457,0.131 0.148,0.038 0.294,0.072 0.437,0.1-0.047,0.036-0.092,0.076-0.133,0.122-0.041,0.045-0.082,0.092-0.123,0.142-0.117,0.098-0.279,0.226-0.489,0.384-0.208,0.158-0.436,0.305-0.683,0.442-0.247,0.136-0.503,0.24-0.767,0.31-0.264,0.07-0.509,0.067-0.735-0.011-0.185-0.055-0.305-0.148-0.36-0.278z"/>
</svg>
