<?xml version='1.0' encoding='iso-8859-1'?>
<svg version="1.1" xmlns="http://www.w3.org/2000/svg" viewBox="0 0 6.24 6.24" xmlns:xlink="http://www.w3.org/1999/xlink" enable-background="new 0 0 6.24 6.24">
  <path fill="#020400" d="M6.24,5.04H4.477H4.32H3.84V4.872C4.406,4.603,4.8,4.03,4.8,3.36c0-0.928-0.752-1.68-1.68-1.68  c-0.928,0-1.68,0.752-1.68,1.68c0,0.67,0.394,1.242,0.96,1.512V5.04H1.92H1.764H0V4.562h1.328C1.097,4.218,0.96,3.806,0.96,3.36  c0-1.191,0.967-2.16,2.16-2.16s2.16,0.969,2.16,2.16c0,0.445-0.137,0.857-0.367,1.201H6.24V5.04L6.24,5.04z"/>
</svg>
