<?xml version='1.0' encoding='iso-8859-1'?>
<svg version="1.1" xmlns="http://www.w3.org/2000/svg" viewBox="0 0 6.238 6.238" xmlns:xlink="http://www.w3.org/1999/xlink" enable-background="new 0 0 6.238 6.238">
  <path fill="#020400" d="m3.801,4.591c0,0 2.277-2.254 1.586-1.57 0.506-0.502 0.506-1.314 0-1.816-0.508-0.502-1.33-0.502-1.836,0 1.094-1.084-1.123,1.109-2.838,2.809-0.322,0.318-0.322,0.836 0,1.156 0.322,0.318 0.846,0.318 1.168,0 1.504-1.489 3.459-3.426 2.504-2.479 0.139-0.137 0.139-0.359 0-0.496-0.139-0.137-0.363-0.137-0.502,0 0.504-0.498-1.25,1.24-1.25,1.24l-.334-.332 1.334-1.32 .01,.008c0.322-0.24 0.781-0.217 1.076,0.074 0.293,0.291 0.316,0.746 0.074,1.066l.008,.008-2.67,2.642-.004-.003c-0.509,0.422-1.269,0.396-1.748-0.078s-0.504-1.227-0.078-1.73l-.006-.005 3.006-2.975 .004,.004c0.695-0.601 1.752-0.578 2.414,0.081 0.664,0.656 0.69,1.703 0.08,2.391l.004,.004-1.668,1.652-.334-.331z"/>
</svg>
