<?xml version='1.0' encoding='iso-8859-1'?>
<svg version="1.1" xmlns="http://www.w3.org/2000/svg" viewBox="0 0 6.345 6.345" xmlns:xlink="http://www.w3.org/1999/xlink" enable-background="new 0 0 6.345 6.345">
  <path fill="#020400" d="m2.161,6.221l-.098,.124h-1.582-0.48v-0.48-1.575l.123-.106 4.185-4.184 2.035,2.037-4.183,4.184h-4.44089e-16zm-1.67-1.724l-.01,.01v1.358h1.358l.01-.01c0.14-0.308 0.12-0.668-0.059-0.96l-.34-.339c-0.291-0.179-0.651-0.198-0.959-0.059zm3.818-3.818l-3.318,3.319c0.265,0.014 0.527,0.1 0.756,0.262l3.07-3.072-.508-.509zm-2.223,3.92c0.16,0.228 0.246,0.489 0.262,0.756l3.318-3.319-.51-.509-3.07,3.072z"/>
</svg>
