<?xml version='1.0' encoding='iso-8859-1'?>
<svg version="1.1" xmlns="http://www.w3.org/2000/svg" viewBox="0 0 6.236 6.236" xmlns:xlink="http://www.w3.org/1999/xlink" enable-background="new 0 0 6.236 6.236">
  <path fill="#020400" d="m6.236,5.814l-.328,.303-2.779-2.562c-0.328,0.252-0.74,0.404-1.187,0.404-1.073,0-1.942-0.859-1.942-1.92 0-1.06 0.869-1.92 1.941-1.92 1.072,0 1.941,0.86 1.941,1.92 0,0.457-0.162,0.876-0.432,1.206l2.786,2.569zm-4.295-5.215c-0.805-2.22045e-16-1.457,0.644-1.457,1.44 0,0.795 0.652,1.44 1.457,1.44 0.803,0 1.455-0.645 1.455-1.44 0-0.795-0.652-1.44-1.455-1.44z"/>
</svg>
