<?xml version='1.0' encoding='iso-8859-1'?>
<svg version="1.1" xmlns="http://www.w3.org/2000/svg" viewBox="0 0 6.24 6.24" xmlns:xlink="http://www.w3.org/1999/xlink" enable-background="new 0 0 6.24 6.24">
  <path fill="#020400" d="m5.279,1.92c-0.248,0-0.473-0.098-0.643-0.252l-2.769,1.154c0.078,0.232 0.053,0.395 0.031,0.5l2.736,1.252c0.171-0.156 0.397-0.254 0.645-0.254 0.531,0 0.961,0.43 0.961,0.959 0,0.531-0.43,0.961-0.961,0.961-0.529,0-0.959-0.43-0.959-0.961 0-0.105 0.021-0.203 0.053-0.299l-2.693-1.23c-0.178,0.201-0.432,0.33-0.721,0.33-0.529,0-0.959-0.43-0.959-0.961 0-0.529 0.43-0.959 0.959-0.959 0.25,0 0.475,0.098 0.645,0.252l2.768-1.154c-0.03-0.094-0.052-0.194-0.052-0.299 0-0.529 0.43-0.959 0.959-0.959 0.532,0 0.961,0.43 0.961,0.959 0,0.531-0.429,0.961-0.961,0.961zm0,3.84c0.266,0 0.48-0.215 0.48-0.48 0-0.264-0.215-0.48-0.48-0.48-0.264,0-0.479,0.217-0.479,0.48 0.001,0.265 0.216,0.48 0.479,0.48zm-4.32-3.119c-0.264,0-0.479,0.215-0.479,0.479 0,0.266 0.215,0.48 0.479,0.48 0.266,0 0.48-0.215 0.48-0.48 0-0.265-0.214-0.479-0.48-0.479zm4.32-2.16c-0.264,1.11022e-16-0.479,0.215-0.479,0.478 0,0.266 0.215,0.48 0.479,0.48 0.266,0 0.48-0.215 0.48-0.48 0.001-0.264-0.214-0.478-0.48-0.478z"/>
</svg>
