<?xml version='1.0' encoding='iso-8859-1'?>
<svg version="1.1" xmlns="http://www.w3.org/2000/svg" viewBox="0 0 6.24 6.24" xmlns:xlink="http://www.w3.org/1999/xlink" enable-background="new 0 0 6.24 6.24">
  <path fill="#020400" d="m4.231,2.125c0.008-0.066 0.017-0.129 0.024-0.188 0.04-0.324-0.466-0.32-0.507,0-0.006,0.047-0.015,0.092-0.021,0.139-0.453-0.01-0.919,0.061-1.359,0.191-0.005-0.261-0.004-0.523-0.002-0.789 0.695-0.1 1.384-0.277 2.082-0.459 0.316-0.082 0.182-0.572-0.134-0.49-0.646,0.168-1.291,0.342-1.943,0.446 0.002-0.24 0.005-0.482 0.004-0.729-0.001-0.328-0.507-0.328-0.506,0 0,0.268-0.002,0.531-0.005,0.789-0.471,0.045-0.946,0.041-1.427-0.041-0.319-0.053-0.456,0.436-0.134,0.49 0.528,0.088 1.045,0.096 1.556,0.055-0.002,0.307-0.002,0.609 0.005,0.91-0.339,0.142-0.65,0.32-0.906,0.525-1.45,1.16-0.971,3.576 1.14,3.233 1.364-0.223 1.847-2.201 2.06-3.57 0.576,0.074 1.133,0.355 1.354,0.926 0.353,0.908-0.564,2.24-1.55,2.082-0.319-0.051-0.457,0.438-0.135,0.49 1.529,0.242 3.009-1.924 1.916-3.213-0.384-0.453-0.923-0.701-1.512-0.797zm-3.547,3.039c-0.445-0.582 0.032-1.275 0.42-1.66 0.218-0.217 0.489-0.385 0.782-0.517 0.051,0.832 0.186,1.654 0.513,2.502-0.043,0.034-0.085,0.07-0.13,0.101-0.535,0.375-1.231,0.037-1.585-0.426h-1.11022e-16zm2.101-.094c-0.256-0.761-0.36-1.511-0.399-2.271 0.414-0.121 0.849-0.182 1.257-0.188-0.105,0.575-0.25,1.139-0.454,1.688-0.101,0.271-0.234,0.535-0.404,0.771z"/>
</svg>
